<svg xmlns="http://www.w3.org/2000/svg" width="30" height="30" viewBox="0 0 30 30">
  <defs>
    <style>
      .cls-1 {
        fill: #fff;
      }
    </style>
  </defs>
  <path id="Icon_awesome-rss-square" data-name="Icon awesome-rss-square" class="cls-1" d="M26.786,2.25H3.214A3.214,3.214,0,0,0,0,5.464V29.036A3.214,3.214,0,0,0,3.214,32.25H26.786A3.214,3.214,0,0,0,30,29.036V5.464A3.214,3.214,0,0,0,26.786,2.25ZM7.5,27.964a3.214,3.214,0,1,1,3.214-3.214A3.214,3.214,0,0,1,7.5,27.964Zm10.549,0h-2.3a.766.766,0,0,1-.766-.712A10.718,10.718,0,0,0,5,17.266a.766.766,0,0,1-.712-.766V14.2a.765.765,0,0,1,.8-.765A14.544,14.544,0,0,1,18.814,27.161a.765.765,0,0,1-.765.8Zm6.9,0h-2.3a.767.767,0,0,1-.765-.739A17.6,17.6,0,0,0,5.025,10.366.768.768,0,0,1,4.286,9.6V7.3a.765.765,0,0,1,.789-.766A21.443,21.443,0,0,1,25.714,27.175a.765.765,0,0,1-.766.789Z" transform="translate(0 -2.25)"/>
</svg>
